<svg width="50" height="50" viewBox="0 0 50 50" fill="none" xmlns="http://www.w3.org/2000/svg">
<g id="Upwork">
<path id="Vector" d="M35.9659 30.3677C32.8549 30.3677 30.7969 27.9686 30.2209 27.0354C30.9569 21.1391 33.1139 19.2806 35.9659 19.2806C38.7839 19.2806 40.9789 21.5318 40.9789 24.8242C40.9789 28.1165 38.7839 30.3677 35.9659 30.3677ZM35.9659 15.6615C30.8949 15.6615 28.0529 18.9659 27.2409 22.3681C26.3169 20.6355 25.6369 18.3174 25.1009 16.1631H18.0919V24.8801C18.0919 28.0476 16.6539 30.3827 13.8329 30.3827C11.0119 30.3827 9.39586 28.0476 9.39586 24.8811L9.42586 16.1631H5.38586V24.8801C5.38586 27.4251 6.21186 29.7322 7.71186 31.3789C9.25986 33.0756 11.3759 33.9718 13.8309 33.9718C18.7089 33.9718 22.1119 30.2338 22.1119 24.8831V19.0258C22.6259 20.9533 23.8319 24.6603 26.1529 27.9107L23.9849 40.2448H28.0929L29.5239 31.4998C29.9939 31.8885 30.4919 32.2402 31.0139 32.554C32.3832 33.4236 33.9612 33.9098 35.5829 33.9618H35.5909C35.7119 33.9618 35.8349 33.9688 35.9599 33.9688C40.9889 33.9688 44.9939 30.078 44.9939 24.8332C44.9949 19.5854 40.9939 15.6615 35.9659 15.6615Z" fill="white"/>
<path id="Vector_2" d="M9.212 0C4.124 0 0 4.14068 0 9.2486V40.7114C0 45.8193 4.125 49.96 9.213 49.96H40.787C45.875 49.96 50 45.8193 50 40.7114V9.2486C50 4.14068 45.875 0 40.787 0H9.212Z" fill="#38D87E" fill-opacity="0.65"/>
</g>
</svg>
