<svg width="50" height="50" viewBox="0 0 50 50" fill="none" xmlns="http://www.w3.org/2000/svg">
<g id="Email">
<g id="Group">
<path id="Vector" d="M4.06031 42.1831C0.0587338 42.1831 3.99536 38.1228 3.99536 38.1228L14.1975 26.9107C15.1898 25.8206 17.1046 24.1654 18.2241 25.0785C19.3435 25.9914 20.8385 27.8414 21.8797 28.8852L23.9895 30.9969C25.1205 31.998 25.9907 30.9969 25.9907 30.9969L28.1494 28.8702C29.1995 27.8352 30.7033 26.0297 31.8245 25.1898C32.9456 24.3498 34.8526 25.9471 35.8421 27.0398L45.9845 38.2466C49.9879 42.1833 46.0495 42.1833 46.0495 42.1833H4.06031V42.1831ZM5.79205 32.9588C4.7998 34.0497 3.35027 35.9469 2.37061 37.0486C1.26449 38.2918 0 39.2358 0 37.0584L0.0480994 15.1849C0.0516987 13.7104 0.0107978 10.8985 1.0181 11.4031C1.39276 11.5909 1.90533 11.9814 2.60113 12.6782L10.8572 19.4331C11.998 20.3666 13.6059 21.509 14.1319 22.2699C14.4639 22.7496 14.616 23.3075 14.1355 23.7898L5.79205 32.9588ZM28.0454 25.1878C26.9056 26.123 25.6668 27.4498 25.0341 27.4516C24.4015 27.4524 23.1396 26.156 21.9944 25.2269L4.03021 10.6547C2.88498 9.72662 0.912253 7.85713 1.89273 7.35601C2.60097 6.99379 3.83879 7.00001 3.83879 7.00001H46.0532C49.8537 7.00001 47.9211 8.8767 47.9211 8.8767L28.0454 25.1878ZM47.6266 37.0486C46.6451 35.9478 45.1946 34.0497 44.2034 32.9588L35.8647 23.7888C35.3815 23.3065 35.5327 22.7486 35.8647 22.269C36.3905 21.5082 37.9994 20.3664 39.1411 19.4331L45.3327 14.3681C46.4735 13.4345 47.9738 11.9076 48.9803 11.4031C49.9867 10.8985 49.9431 13.7113 49.9467 15.1849L50 37.0584C50.0007 39.2358 48.7344 38.2918 47.6266 37.0486Z" fill="#38D87E" fill-opacity="0.65"/>
</g>
</g>
</svg>
